<mxfile host="65bd71144e">
    <diagram id="Pg0YqHZrm_nPTyZoBgD1" name="PÃ¡gina-1">
        <mxGraphModel dx="1130" dy="792" grid="1" gridSize="10" guides="1" tooltips="1" connect="1" arrows="1" fold="1" page="1" pageScale="1" pageWidth="827" pageHeight="1169" math="0" shadow="0">
            <root>
                <mxCell id="0"/>
                <mxCell id="1" parent="0"/>
                <mxCell id="2" value="&lt;span class=&quot;selectable-text copyable-text&quot;&gt;+tocar(): void &lt;br&gt;+pausar(): void &lt;br&gt;+selecionarMusica(): void&lt;/span&gt;" style="rounded=0;whiteSpace=wrap;html=1;fillColor=#f5f5f5;fontColor=#080808;strokeColor=#666666;align=left;" vertex="1" parent="1">
                    <mxGeometry x="320" y="60" width="290" height="130" as="geometry"/>
                </mxCell>
                <mxCell id="3" value="&lt;font color=&quot;#000000&quot;&gt;ReprodutorMusical&lt;/font&gt;" style="rounded=0;whiteSpace=wrap;html=1;fillColor=#fff2cc;strokeColor=#d6b656;" vertex="1" parent="1">
                    <mxGeometry x="320" y="60" width="290" height="40" as="geometry"/>
                </mxCell>
                <mxCell id="4" value="&lt;span class=&quot;selectable-text copyable-text&quot;&gt;+ligar(): void &lt;br&gt;+atender(): void &lt;br&gt;+iniciarCorreioVoz(): void&lt;/span&gt;" style="rounded=0;whiteSpace=wrap;html=1;fillColor=#f5f5f5;fontColor=#080808;strokeColor=#666666;align=left;" vertex="1" parent="1">
                    <mxGeometry x="320" y="230" width="290" height="130" as="geometry"/>
                </mxCell>
                <mxCell id="5" value="&lt;font color=&quot;#000000&quot;&gt;AparelhoTelefonico&lt;/font&gt;" style="rounded=0;whiteSpace=wrap;html=1;fillColor=#fff2cc;strokeColor=#d6b656;" vertex="1" parent="1">
                    <mxGeometry x="320" y="230" width="290" height="40" as="geometry"/>
                </mxCell>
                <mxCell id="6" value="&lt;span class=&quot;selectable-text copyable-text&quot;&gt;+exibirPagina(): void &lt;br&gt;+adicionarNovaAba(): void &lt;br&gt;+atualizarPagina(): void&lt;/span&gt;" style="rounded=0;whiteSpace=wrap;html=1;fillColor=#f5f5f5;fontColor=#080808;strokeColor=#666666;align=left;" vertex="1" parent="1">
                    <mxGeometry x="320" y="420" width="290" height="130" as="geometry"/>
                </mxCell>
                <mxCell id="7" value="&lt;font color=&quot;#000000&quot;&gt;NavegadorInternet&lt;/font&gt;" style="rounded=0;whiteSpace=wrap;html=1;fillColor=#fff2cc;strokeColor=#d6b656;" vertex="1" parent="1">
                    <mxGeometry x="320" y="420" width="290" height="40" as="geometry"/>
                </mxCell>
                <mxCell id="8" value="" style="endArrow=classic;html=1;fontColor=#000000;entryX=0.417;entryY=1;entryDx=0;entryDy=0;entryPerimeter=0;" edge="1" parent="1" target="4">
                    <mxGeometry width="50" height="50" relative="1" as="geometry">
                        <mxPoint x="440" y="430" as="sourcePoint"/>
                        <mxPoint x="490" y="380" as="targetPoint"/>
                        <Array as="points">
                            <mxPoint x="441" y="390"/>
                            <mxPoint x="441" y="380"/>
                        </Array>
                    </mxGeometry>
                </mxCell>
                <mxCell id="9" value="" style="endArrow=classic;html=1;fontColor=#000000;entryX=0.417;entryY=1;entryDx=0;entryDy=0;entryPerimeter=0;" edge="1" parent="1">
                    <mxGeometry width="50" height="50" relative="1" as="geometry">
                        <mxPoint x="440" y="260" as="sourcePoint"/>
                        <mxPoint x="440.93000000000006" y="190" as="targetPoint"/>
                        <Array as="points">
                            <mxPoint x="441" y="220"/>
                            <mxPoint x="441" y="210"/>
                        </Array>
                    </mxGeometry>
                </mxCell>
            </root>
        </mxGraphModel>
    </diagram>
</mxfile>